# xmcd CD database file
#
# Track frame offsets:
#	150
#	25842
#	46977
#	70584
#	100828
#	119851
#	167687
#	193055
#	218248
#	241666
#	265166
#	285446
#
# Disc length: 4176 seconds
#
# Revision: 0
# Processed by: cddbd v1.5.2PL0 Copyright (c) Steve Scherf et al.
# Submitted via: CDex 1.70beta2
#
DISCID=a7104e0c
DTITLE=Hired Help - Live at Mike and Mins
DYEAR=2000
DGENRE=Blues
TTITLE0=Let the Good Times Roll
TTITLE1=Walkin the Dog
TTITLE2=Put your Eyes in your Head
TTITLE3=Honey Hush
TTITLE4=I Got You (I Feel Good)
TTITLE5=Nineteen Years Old
TTITLE6=Mustang Sally
TTITLE7=Pride and Joy
TTITLE8=Heartbreaker
TTITLE9=Sweet Home Chicago
TTITLE10=Alone and Drinkin
TTITLE11=The Blues is Alright
EXTD=YEAR: 2000
EXTT0=
EXTT1=
EXTT2=
EXTT3=
EXTT4=
EXTT5=
EXTT6=
EXTT7=
EXTT8=
EXTT9=
EXTT10=
EXTT11=
PLAYORDER=
